<?xml version="1.0" standalone="no"?>
<!DOCTYPE svg PUBLIC "-//W3C//DTD SVG 20010904//EN"
 "http://www.w3.org/TR/2001/REC-SVG-20010904/DTD/svg10.dtd">
<svg version="1.0" xmlns="http://www.w3.org/2000/svg"
 width="512.000000pt" height="512.000000pt" viewBox="0 0 512.000000 512.000000"
 preserveAspectRatio="xMidYMid meet">

<g transform="translate(0.000000,512.000000) scale(0.100000,-0.100000)"
fill="#fff" stroke="none">
<path d="M2820 3669 c-70 -29 -61 -6 -411 -1057 -362 -1086 -349 -1036 -294
-1108 55 -71 153 -83 223 -27 36 29 42 43 369 1019 287 853 332 996 329 1037
-5 80 -62 137 -143 143 -26 2 -59 -1 -73 -7z"/>
<path d="M1535 3346 c-16 -8 -186 -171 -377 -362 -375 -377 -370 -371 -353
-461 5 -33 51 -83 358 -390 301 -301 358 -353 395 -364 116 -34 227 77 193
194 -11 35 -56 85 -289 320 l-277 277 282 283 c243 243 282 287 288 320 25
132 -101 237 -220 183z"/>
<path d="M3453 3340 c-46 -20 -79 -64 -89 -117 -13 -71 4 -93 295 -386 l276
-277 -277 -278 c-152 -152 -282 -290 -288 -305 -17 -47 -12 -101 13 -138 48
-72 126 -97 200 -65 18 8 185 168 379 362 375 377 370 371 353 462 -6 32 -51
82 -348 381 -399 400 -411 408 -514 361z"/>
</g>
</svg>
